<svg width="1108" height="159" fill="none" xmlns="http://www.w3.org/2000/svg"><path fill-rule="evenodd" clip-rule="evenodd" d="M1021.33 38.554c6.34 0 12.21 1.46 17.59 4.379 5.39 2.92 9.66 7.122 12.84 12.608 3.17 5.487 4.75 11.955 4.75 19.404 0 8.96-1.99 17.038-5.96 24.236-3.98 7.197-9.39 12.835-16.23 16.912-6.85 4.076-14.45 6.115-22.81 6.115-6.34 0-11.824-1.107-16.454-3.322-4.631-2.215-8.205-5.537-10.722-9.966L981.918 121h-22.347L981.918 8.958h23.552l-7.545 37.75c6.545-5.436 14.345-8.154 23.405-8.154Zm-12.53 64.175c4.63 0 8.75-1.133 12.38-3.397 3.62-2.265 6.44-5.411 8.45-9.438 2.02-4.027 3.02-8.657 3.02-13.892 0-5.537-1.63-9.916-4.9-13.137-3.27-3.221-7.83-4.832-13.67-4.832-4.53 0-8.61 1.133-12.23 3.398-3.624 2.265-6.442 5.41-8.455 9.437-2.014 4.027-3.02 8.657-3.02 13.892 0 5.537 1.61 9.916 4.832 13.137 3.221 3.221 7.753 4.832 13.593 4.832Zm-60.555.755c2.618 0 4.833-.403 6.645-1.208l-2.416 17.969c-4.027 1.309-8.255 1.963-12.684 1.963-5.94 0-10.847-1.208-14.723-3.624-3.876-2.416-6.468-5.738-7.776-9.966-3.725 4.53-8.18 7.927-13.364 10.192-5.184 2.265-10.696 3.398-16.535 3.398-8.858 0-15.93-2.416-21.215-7.248-5.285-4.832-7.927-11.627-7.927-20.385 0-3.322.352-6.594 1.057-9.815l8.908-44.998h23.556l-8.606 43.488a28.487 28.487 0 0 0-.604 5.889c0 8.456 4.529 12.684 13.59 12.684 5.939 0 10.846-1.736 14.722-5.21 3.876-3.472 6.518-8.682 7.928-15.628l8.304-41.223h23.556l-10.569 53.001c-.202 1.41-.302 2.416-.302 3.02 0 5.134 2.818 7.701 8.455 7.701Zm-131.974-64.93c9.061 0 16.258 2.416 21.594 7.248 5.335 4.832 8.003 11.677 8.003 20.536 0 3.221-.353 6.443-1.057 9.664L835.75 121h-23.556l8.759-43.488c.402-1.711.604-3.574.604-5.587 0-4.228-1.158-7.45-3.474-9.664-2.315-2.215-5.788-3.322-10.418-3.322-6.04 0-11.049 1.736-15.025 5.21-3.976 3.472-6.669 8.682-8.078 15.628L776.407 121h-23.556L775.199 8.958h23.556l-7.55 38.203c6.946-5.738 15.302-8.607 25.066-8.607Zm-77.765 3.624v70.366c0 13.087-3.17 22.751-9.512 28.992-6.343 6.241-15.906 9.362-28.691 9.362-7.248 0-14.093-1.107-20.536-3.322-6.442-2.215-11.626-5.285-15.553-9.211l4.078-5.738c3.926 3.624 8.657 6.443 14.193 8.456 5.537 2.013 11.426 3.02 17.667 3.02 10.47 0 18.221-2.491 23.254-7.475 5.034-4.983 7.551-12.709 7.551-23.178v-13.288c-3.222 5.738-7.702 10.167-13.44 13.288-5.738 3.121-12.18 4.681-19.328 4.681-7.348 0-14.017-1.636-20.007-4.907-5.99-3.272-10.696-7.827-14.119-13.666-3.422-5.839-5.134-12.432-5.134-19.781 0-7.349 1.712-13.942 5.134-19.781 3.423-5.839 8.129-10.369 14.119-13.59s12.659-4.832 20.007-4.832c7.249 0 13.792 1.61 19.63 4.832 5.839 3.221 10.319 7.751 13.44 13.59V42.178h7.247Zm-39.713 69.158c6.141 0 11.678-1.334 16.61-4.002 4.933-2.667 8.784-6.392 11.552-11.174 2.768-4.781 4.153-10.242 4.153-16.383 0-6.14-1.385-11.577-4.153-16.308s-6.619-8.43-11.552-11.099c-4.932-2.667-10.469-4.001-16.61-4.001-6.14 0-11.652 1.334-16.534 4.002-4.882 2.667-8.708 6.367-11.476 11.098-2.768 4.731-4.153 10.167-4.153 16.308 0 6.14 1.385 11.602 4.153 16.383 2.768 4.782 6.594 8.507 11.476 11.174 4.882 2.668 10.394 4.002 16.534 4.002Zm-89.996-69.762c9.866 0 17.667 2.869 23.406 8.607 5.738 5.738 8.606 13.993 8.606 24.764V121h-7.549V75.549c0-8.859-2.24-15.603-6.72-20.234-4.48-4.63-10.746-6.946-18.8-6.946-9.261 0-16.559 2.768-21.895 8.305-5.335 5.537-8.002 12.986-8.002 22.348V121h-7.551V42.178h7.249v17.063c2.718-5.537 6.769-9.865 12.155-12.986 5.386-3.12 11.753-4.681 19.101-4.681Zm-73.386.604h7.55V121h-7.55V42.178Zm3.776-19.177c-1.712 0-3.171-.579-4.38-1.736-1.208-1.158-1.812-2.593-1.812-4.304 0-1.711.604-3.171 1.812-4.379 1.209-1.208 2.668-1.812 4.38-1.812 1.711 0 3.17.579 4.378 1.737 1.208 1.157 1.813 2.592 1.813 4.303 0 1.711-.605 3.171-1.813 4.379-1.208 1.208-2.667 1.812-4.378 1.812Zm-20.234 93.016c-1.913 1.812-4.304 3.196-7.173 4.152-2.869.957-5.864 1.435-8.985 1.435-6.845 0-12.13-1.888-15.855-5.662-3.724-3.775-5.586-9.035-5.586-15.78V24.964h7.55v17.214h25.065v6.493h-25.065v50.736c0 5.134 1.233 9.035 3.699 11.702 2.466 2.668 6.116 4.002 10.947 4.002 4.933 0 9.01-1.46 12.231-4.379l3.172 5.285Zm-89.997-1.208c5.135 0 9.891-.931 14.27-2.793 4.379-1.863 8.028-4.606 10.948-8.23l4.378 4.983c-3.422 4.228-7.7 7.424-12.834 9.588-5.135 2.165-10.772 3.247-16.913 3.247-7.852 0-14.873-1.711-21.064-5.134-6.191-3.423-11.023-8.154-14.496-14.194-3.473-6.04-5.209-12.936-5.209-20.687 0-7.751 1.635-14.647 4.907-20.687 3.272-6.04 7.827-10.771 13.666-14.194 5.838-3.423 12.432-5.134 19.781-5.134 6.845 0 13.011 1.586 18.497 4.757 5.486 3.17 9.865 7.55 13.137 13.136 3.272 5.588 5.059 11.854 5.361 18.8l-66.591 12.986c1.912 7.248 5.737 12.986 11.475 17.214 5.739 4.228 12.634 6.342 20.687 6.342Zm-2.566-66.591c-5.94 0-11.275 1.384-16.007 4.152-4.731 2.769-8.405 6.645-11.023 11.628-2.617 4.983-3.925 10.645-3.925 16.987 0 1.107.1 2.668.302 4.681l60.097-11.778c-.704-4.731-2.365-9.06-4.982-12.986-2.618-3.926-6.04-7.022-10.269-9.287-4.228-2.265-8.959-3.397-14.193-3.397Zm-82.749 30.653-20.535 18.724V121h-7.551V8.958h7.551v79.275l50.433-46.055h9.664l-33.974 31.861L386.526 121h-9.362l-33.523-42.129Zm-74.443-19.479c2.417-5.738 6.191-10.142 11.325-13.213 5.135-3.07 11.376-4.605 18.724-4.605v7.399l-1.812-.151c-8.758 0-15.603 2.743-20.536 8.23-4.932 5.486-7.399 13.111-7.399 22.876V121h-7.549V42.178h7.247v17.214ZM234.62 42.178V121h-7.399v-18.573c-3.121 6.141-7.5 10.872-13.138 14.194-5.637 3.322-12.029 4.983-19.177 4.983-7.348 0-13.992-1.711-19.932-5.134-5.939-3.423-10.595-8.154-13.967-14.194-3.372-6.04-5.059-12.936-5.059-20.687 0-7.751 1.687-14.672 5.059-20.762s8.028-10.822 13.967-14.194c5.94-3.373 12.584-5.059 19.932-5.059 7.047 0 13.364 1.661 18.951 4.983 5.587 3.322 9.991 7.953 13.213 13.892V42.178h7.55Zm-39.261 72.631c6.041 0 11.451-1.409 16.233-4.228s8.557-6.745 11.325-11.778c2.768-5.033 4.153-10.771 4.153-17.214 0-6.443-1.385-12.18-4.153-17.214-2.768-5.033-6.543-8.96-11.325-11.778-4.782-2.819-10.192-4.228-16.233-4.228-6.04 0-11.45 1.41-16.232 4.228-4.782 2.819-8.557 6.745-11.325 11.778-2.768 5.033-4.153 10.771-4.153 17.214 0 6.443 1.385 12.18 4.153 17.214 2.768 5.033 6.543 8.959 11.325 11.778 4.782 2.819 10.192 4.228 16.232 4.228ZM106.42 41.574c9.765 0 17.441 2.869 23.028 8.607 5.587 5.738 8.38 13.993 8.38 24.764V121h-7.549V75.549c0-8.859-2.165-15.603-6.493-20.234-4.329-4.63-10.369-6.946-18.12-6.946-8.86 0-15.88 2.768-21.065 8.305-5.184 5.537-7.776 12.986-7.776 22.348V121h-7.55V75.549c0-8.859-2.165-15.603-6.494-20.234-4.328-4.63-10.368-6.946-18.12-6.946-8.858 0-15.88 2.768-21.064 8.305-5.184 5.537-7.777 12.986-7.777 22.348V121H8.27V42.178h7.248V59.09c2.618-5.537 6.519-9.84 11.703-12.91 5.184-3.07 11.35-4.606 18.497-4.606 7.148 0 13.213 1.61 18.196 4.832 4.983 3.221 8.531 7.953 10.645 14.194 2.618-5.839 6.72-10.47 12.307-13.892 5.587-3.423 12.105-5.134 19.554-5.134Z" fill="#fff"/><path fill-rule="evenodd" clip-rule="evenodd" d="M1079.31 122.51c-5.73 0-10.49-1.837-14.27-5.512-3.77-3.674-5.66-8.38-5.66-14.118 0-5.738 1.89-10.394 5.66-13.968 3.78-3.573 8.54-5.36 14.27-5.36 5.74 0 10.5 1.787 14.27 5.36 3.78 3.574 5.67 8.23 5.67 13.968 0 5.738-1.89 10.444-5.67 14.118-3.77 3.675-8.53 5.512-14.27 5.512Z" fill="#1838E4"/></svg>